<?xml version="1.0" ?><!DOCTYPE svg  PUBLIC '-//W3C//DTD SVG 1.1//EN'  'http://www.w3.org/Graphics/SVG/1.1/DTD/svg11.dtd'><svg enable-background="new 0 0 520 520" height="520px" id="Layer_1" version="1.1" viewBox="0 0 520 520" width="520px" xml:space="preserve" xmlns="http://www.w3.org/2000/svg" xmlns:xlink="http://www.w3.org/1999/xlink"><g><path d="M321.162,354.07c2.65-3.744,6.004-6.472,10.062-8.19h-85.877c3.897,1.719,7.097,4.329,9.594,7.839   c2.494,3.51,3.744,7.451,3.744,11.817c0,6.709-2.069,12.168-6.201,16.38c-4.135,4.212-9.557,6.318-16.263,6.318   c-6.241,0-11.583-2.066-16.029-6.201c-4.446-4.132-6.669-9.477-6.669-16.029c0-4.68,1.247-8.775,3.744-12.285   c2.494-3.51,5.77-6.12,9.828-7.839h-11.7v-18.954h127.764v-26.441H201.354l-25.506-88.92L371.706,200.8l10.062-31.356   c0.622-1.558,1.171-2.728,1.639-3.51c0.468-0.779,1.323-1.638,2.574-2.574c1.246-0.779,2.61-1.755,4.095-2.925   c1.48-1.17,3.078-2.376,4.797-3.627c2.183-1.715,4.329-3.236,6.435-4.563c2.106-1.324,3.394-2.143,3.861-2.457l-1.872,0.468   l1.872-0.936c0.779-0.311,1.908-0.077,3.393,0.702c1.481,0.783,2.845,1.638,4.096,2.574c1.403,0.314,2.223,0.976,2.457,1.989   c0.233,1.017,0.351,2.146,0.351,3.393v3.276c0,0.936-0.274,1.953-0.819,3.042c-0.548,1.093-1.443,2.187-2.69,3.276   c-0.468,0.468-1.251,1.134-2.34,1.989c-1.094,0.859-2.224,1.755-3.394,2.691s-2.303,1.872-3.393,2.808   c-1.094,0.936-2.029,1.638-2.809,2.106L362.58,293.23v52.649h-13.572c3.897,1.719,7.214,4.446,9.945,8.19   c2.728,3.744,4.095,7.955,4.095,12.636c0,3.122-0.665,5.967-1.989,8.541c-1.327,2.573-3.042,4.837-5.147,6.786   c-2.106,1.952-4.526,3.473-7.254,4.563c-2.731,1.094-5.499,1.639-8.308,1.639c-2.965,0-5.85-0.545-8.657-1.639   c-2.809-1.09-5.266-2.574-7.371-4.445c-2.106-1.873-3.825-4.132-5.148-6.787c-1.327-2.65-1.989-5.535-1.989-8.657   C317.184,362.025,318.508,357.814,321.162,354.07z M219.84,331.372v10.062h138.294v-48.906l38.143-118.169   c0.468-0.311,1.323-0.936,2.573-1.872c1.247-0.936,2.534-1.949,3.861-3.042c1.323-1.089,2.574-2.143,3.744-3.159   c1.17-1.013,1.989-1.755,2.457-2.223c1.404-0.936,2.105-1.872,2.105-2.808v-1.638v-1.638c0-0.622-0.08-0.936-0.233-0.936   c-0.314-0.779-0.899-1.638-1.755-2.574c-0.859-0.936-1.444-1.323-1.755-1.17l-1.872,0.936c-0.157,0-0.899,0.508-2.224,1.521   c-1.327,1.017-2.848,2.187-4.563,3.51c-1.719,1.327-3.474,2.731-5.266,4.212c-1.795,1.484-3.315,2.691-4.563,3.627   c-0.782,0.625-1.367,1.17-1.755,1.638c-0.392,0.468-0.742,1.093-1.053,1.872l-10.998,34.632L181.698,216.01l23.166,79.795h142.74   v35.567H219.84z M196.206,226.774v-0.936c4.055-0.622,8.033-1.013,11.934-1.17c3.897-0.153,7.799-0.234,11.7-0.234v15.21h-19.89   c-0.157,0-0.314-0.271-0.468-0.819c-0.157-0.545-0.314-0.973-0.468-1.287c-0.157-0.468-0.392-1.17-0.702-2.106   c-0.314-0.936-0.625-1.949-0.936-3.042c-0.314-1.09-0.585-2.066-0.819-2.925c-0.234-0.855-0.351-1.521-0.351-1.989V226.774z    M208.374,229.348c-2.34,0-4.76,0.157-7.254,0.468c0.311,0.783,0.585,1.678,0.819,2.691c0.234,1.017,0.504,1.913,0.819,2.691   h12.636v-6.084C213.054,229.271,210.714,229.348,208.374,229.348z M219.84,246.898v14.508h-13.806   c-0.314-0.936-0.549-1.558-0.702-1.872c-0.157-0.468-0.432-1.287-0.819-2.457c-0.392-1.17-0.742-2.417-1.053-3.744   c-0.314-1.324-0.666-2.61-1.053-3.861c-0.392-1.247-0.666-2.106-0.819-2.574H219.84z M202.992,235.666   c0,0.157,0.077,0.314,0.234,0.468C203.069,236.134,202.992,235.98,202.992,235.666z M208.374,254.269   c0.311,1.017,0.622,1.912,0.936,2.691h6.084v-5.616h-7.956C207.749,252.28,208.06,253.256,208.374,254.269z M207.906,268.895   h11.934v16.379h-7.254L207.906,268.895z M215.394,278.488v-5.148h-1.638L215.394,278.488z M223.35,378.874   c3.587,3.276,7.875,4.914,12.87,4.914c5.458,0,9.788-1.715,12.987-5.147c3.195-3.43,4.797-7.799,4.797-13.104   c0-4.681-1.678-8.658-5.031-11.935c-3.356-3.275-7.528-4.914-12.519-4.914c-4.995,0-9.324,1.602-12.987,4.797   c-3.667,3.199-5.499,7.371-5.499,12.52C217.968,371.309,219.76,375.598,223.35,378.874z M227.328,223.732   c0.468,0,1.323-0.037,2.574-0.117c1.247-0.077,2.574-0.154,3.978-0.234c1.404-0.077,2.691-0.153,3.861-0.234   c1.17-0.077,1.989-0.117,2.457-0.117c0.311,0,0.778-0.036,1.404-0.117c0.622-0.077,1.013-0.117,1.17-0.117v16.848h-15.444V223.732z    M227.328,246.898h15.444v14.508h-15.444V246.898z M227.328,268.895h15.444v16.379h-15.444V268.895z M231.774,228.178v7.02h6.552   v-7.488c-0.625,0-1.25,0.04-1.872,0.117c-0.625,0.08-1.25,0.117-1.872,0.117C233.957,228.101,233.021,228.178,231.774,228.178z    M231.774,256.96h6.552v-5.616h-6.552V256.96z M231.774,280.828h6.552v-7.488h-6.552V280.828z M266.874,239.644h-15.678V223.03   c0-0.153,0.702-0.351,2.106-0.585c1.404-0.234,2.494-0.351,3.276-0.351c0.468,0,1.17,0,2.106,0c1.089,0,2.143-0.037,3.159-0.117   c1.013-0.077,1.989-0.117,2.925-0.117c0.937,0,1.639,0,2.106,0V239.644z M251.196,246.898h15.678v14.508h-15.678V246.898z    M251.196,268.895h15.678v16.379h-15.678V268.895z M255.993,225.487c-0.234-0.702-0.351-1.364-0.351-1.989v11.7h6.786v-8.658   h-0.702h-5.147C256.421,226.54,256.227,226.189,255.993,225.487z M255.642,256.96h6.786v-5.616h-6.786V256.96z M255.642,280.828   h6.786v-7.488h-6.786V280.828z M274.128,221.158h15.678v18.486h-15.678V221.158z M274.128,246.898h15.678v14.508h-15.678V246.898z    M274.128,268.895h15.678v16.379h-15.678V268.895z M278.574,235.198h6.786v-9.594h-6.786V235.198z M278.574,256.96h6.786v-5.616   h-6.786V256.96z M278.574,280.828h6.786v-7.488h-6.786V280.828z M297.996,219.988c5.147-0.468,10.296-0.702,15.444-0.702v20.358   h-15.444V219.988z M297.996,246.898h15.444v14.508h-15.444V246.898z M297.996,268.895h15.444v16.379h-15.444V268.895z    M305.718,223.966c-1.093,0-2.187,0.081-3.275,0.234v10.998h6.552v-11.466C307.9,223.889,306.808,223.966,305.718,223.966z    M302.442,256.96h6.552v-5.616h-6.552V256.96z M302.442,280.828h6.552v-7.488h-6.552V280.828z M336.606,239.644h-15.912v-20.358   c0-0.154,0.388-0.311,1.17-0.468c0.778-0.153,1.403-0.311,1.872-0.468c0.468,0,1.287-0.037,2.457-0.117   c1.17-0.077,2.457-0.117,3.86-0.117c1.247,0,2.534-0.037,3.861-0.117c1.323-0.077,2.223-0.117,2.691-0.117V239.644z    M320.694,246.898h15.912v14.508h-15.912V246.898z M320.694,268.895h15.912v16.379h-15.912V268.895z M327.363,378.991   c3.82,3.199,8.149,4.797,12.986,4.797c2.184,0,4.366-0.428,6.553-1.287c2.183-0.855,4.131-2.065,5.85-3.627   c1.715-1.558,3.119-3.394,4.212-5.499c1.09-2.105,1.638-4.329,1.638-6.669c0-2.493-0.508-4.833-1.521-7.021   c-1.017-2.182-2.38-4.095-4.095-5.732c-1.719-1.639-3.668-2.926-5.851-3.861c-2.187-0.936-4.445-1.404-6.786-1.404   c-4.994,0-9.359,1.756-13.104,5.266s-5.616,7.762-5.616,12.753C321.63,371.7,323.538,375.795,327.363,378.991z M324.438,223.03   h-0.702c-0.157,0-0.234,0.081-0.234,0.234h-0.234L324.438,223.03z M327.48,222.913c-0.783,0.081-1.485,0.117-2.106,0.117v12.168   h6.552v-12.402h-1.872C329.118,222.796,328.259,222.836,327.48,222.913z M325.374,256.96h6.552v-5.616h-6.552V256.96z    M325.374,280.828h6.552v-7.488h-6.552V280.828z M344.796,217.414c3.897-0.468,7.137-0.739,9.711-0.819   c2.574-0.077,5.733-0.117,9.478-0.117h1.403c0.779,0,1.558,0.04,2.34,0.117c0.779,0.08,1.558,0.117,2.341,0.117h1.17l-7.254,22.932   h-19.188V217.414z M344.796,246.898h16.614c0,0.157-0.081,0.391-0.234,0.702c-0.157,0.468-0.391,1.287-0.702,2.457   c-0.314,1.17-0.665,2.38-1.053,3.627c-0.392,1.25-0.782,2.42-1.17,3.51c-0.392,1.093-0.665,1.872-0.819,2.34   c-0.157,0.314-0.314,0.702-0.468,1.17c-0.157,0.468-0.314,0.702-0.468,0.702h-11.7V246.898z M344.796,268.895h9.36   c0,1.25-0.392,3.041-1.17,5.381c-0.314,0.783-0.666,1.836-1.054,3.16c-0.391,1.326-0.782,2.573-1.17,3.744   c-0.391,1.17-0.899,2.537-1.521,4.094h-4.446V268.895z M356.496,221.041c-2.029,0.081-4.446,0.274-7.254,0.585v13.572h11.466   l4.446-14.274h-1.17C361.019,220.924,358.521,220.964,356.496,221.041z M355.326,251.344h-6.084v5.616h4.446   c0.311-0.779,0.544-1.598,0.701-2.457c0.154-0.855,0.388-1.598,0.702-2.223v0.468C355.092,252.126,355.169,251.658,355.326,251.344   z M353.103,277.436c-0.548-1.481-1.21-2.846-1.988-4.096h-1.872v7.488h4.68C353.922,280.049,353.647,278.92,353.103,277.436z    M353.454,257.896c-0.157,0.157-0.234,0.314-0.234,0.468v0.234C353.22,258.287,353.297,258.053,353.454,257.896z"/></g></svg>
