<?xml version="1.0" ?><svg enable-background="new 0 0 211.4051 175.0664" id="twiter" version="1.1" viewBox="0 0 211.4051 175.0664" xml:space="preserve" xmlns="http://www.w3.org/2000/svg" xmlns:xlink="http://www.w3.org/1999/xlink"><path d="M209.6471,20.4551c-1.416-0.959-3.291-0.9102-4.6582,0.123c-1.7949,1.3613-4.7168,2.4414-7.8613,3.2734  c8.1895-9.1758,8.3652-15.3027,8.2773-16.7129c-0.0918-1.4551-0.9688-2.7461-2.2891-3.3672  c-1.3242-0.625-2.875-0.4727-4.0547,0.3828c-9.2109,6.6953-18.3867,8.1094-23.8438,8.252C166.8424,4.3926,155.9635,0,144.3893,0  C119.6061,0,99.444,20.4316,99.444,45.5449c0,2.1582,0.1504,4.3164,0.4512,6.4512C56.944,51.5098,22.0651,10.3555,21.7057,9.9258  c-0.8379-1.002-2.1133-1.5371-3.416-1.4219c-1.3027,0.1133-2.4688,0.8535-3.1211,1.9863  c-12.3613,21.4434-4.0898,40.2773,3.4707,51.0605c-1.3379-0.7129-2.4219-1.416-3.0684-1.8926  c-1.2012-0.8945-2.8047-1.043-4.1543-0.3809c-1.3477,0.6641-2.209,2.0234-2.2344,3.5254  c-0.334,20.4316,9.502,32.1367,18.748,38.6074c-1.2324-0.1172-2.4844,0.3418-3.3398,1.2715  c-0.9609,1.0449-1.2988,2.5195-0.8848,3.877c6.3867,20.9082,22.0723,28.0117,32.0527,30.4219  c-20.5215,15.9746-50.7188,10.834-51.0527,10.7754c-1.8223-0.3223-3.625,0.6367-4.3672,2.3281  c-0.7422,1.6895-0.2344,3.6699,1.2344,4.7891c21.6602,16.5312,47.5664,20.1934,66.2812,20.1934  c14.1543-0.002,24.1992-2.0977,25.1602-2.3066c94.791-22.4629,97.459-109.291,97.2422-123.5215  c17.7949-16.5488,20.5762-22.8516,21.0059-24.4102C211.7154,23.1738,211.067,21.416,209.6471,20.4551z" fill="#535353"/></svg>
